<svg xmlns="http://www.w3.org/2000/svg" width="26.934" height="28.73" viewBox="0 0 26.934 28.73"><defs><style>.a{fill:#727272;}</style></defs><path class="a" d="M26.164,16.087a5.306,5.306,0,0,0,.77-2.8,4.883,4.883,0,0,0-4.816-4.8H20.072a7.165,7.165,0,0,0,.5-2.611C20.568,1.792,18.453,0,15.222,0c-3.457,0-3.26,5.327-4.027,6.094C9.919,7.37,8.412,9.822,7.337,10.774H1.8a1.8,1.8,0,0,0-1.8,1.8V26.036a1.8,1.8,0,0,0,1.8,1.8H5.387a1.8,1.8,0,0,0,1.738-1.344c2.5.056,4.212,2.241,9.977,2.241h1.247c4.327,0,6.284-2.212,6.337-5.349a5.41,5.41,0,0,0,.973-3.759A5.211,5.211,0,0,0,26.164,16.087ZM22.7,19.108a2.492,2.492,0,0,1-.782,3.23c.432,2.737-.988,3.7-2.981,3.7H16.814c-4.02,0-6.623-2.122-9.631-2.122V13.467H7.8c1.591,0,3.815-3.978,5.3-5.469,1.591-1.591,1.061-4.244,2.122-5.3,2.652,0,2.652,1.851,2.652,3.183,0,2.2-1.591,3.183-1.591,5.3h5.835A2.192,2.192,0,0,1,24.241,13.3c.005,1.061-.719,2.122-1.25,2.122a2.7,2.7,0,0,1-.292,3.682ZM4.938,24.241a1.347,1.347,0,1,1-1.347-1.347A1.347,1.347,0,0,1,4.938,24.241Z"/></svg>