<svg xmlns="http://www.w3.org/2000/svg" width="26.934" height="28.73" viewBox="0 0 26.934 28.73"><defs><style>.a{fill:#727272;}</style></defs><path class="a" d="M26.164,12.643a5.211,5.211,0,0,0-.5-3.535,5.41,5.41,0,0,0-.973-3.759C24.633,2.212,22.676,0,18.349,0H17.1C11.29,0,9.483,2.245,7.182,2.245H6.574A1.788,1.788,0,0,0,5.387,1.8H1.8A1.8,1.8,0,0,0,0,3.591V17.058a1.8,1.8,0,0,0,1.8,1.8H5.387a1.794,1.794,0,0,0,1.555-.9h.4c1.074.951,2.582,3.4,3.858,4.68.767.767.57,6.094,4.027,6.094,3.231,0,5.346-1.792,5.346-5.877a7.165,7.165,0,0,0-.5-2.611h2.047a4.883,4.883,0,0,0,4.816-4.8,5.306,5.306,0,0,0-.77-2.8ZM3.591,16.609a1.347,1.347,0,1,1,1.347-1.347A1.347,1.347,0,0,1,3.591,16.609Zm18.527.939H16.283c0,2.122,1.591,3.107,1.591,5.3,0,1.333,0,3.183-2.652,3.183-1.061-1.061-.531-3.714-2.122-5.3-1.49-1.491-3.714-5.469-5.3-5.469H7.182V4.816c3.008,0,5.611-2.122,9.631-2.122h2.122c1.993,0,3.413.961,2.981,3.7a2.492,2.492,0,0,1,.782,3.23,2.7,2.7,0,0,1,.292,3.682c.53,0,1.255,1.061,1.25,2.122A2.192,2.192,0,0,1,22.119,17.548Z"/></svg>