<svg xmlns="http://www.w3.org/2000/svg" width="19.783" height="22.609" viewBox="0 0 19.783 22.609"><defs><style>.a{fill:#ff0303;}</style></defs><path class="a" d="M19.077,3.533H15.438l-1.5-2.5A2.12,2.12,0,0,0,12.117,0H7.666A2.12,2.12,0,0,0,5.847,1.029l-1.5,2.5H.707A.707.707,0,0,0,0,4.239v.707a.707.707,0,0,0,.707.707h.707l.936,14.97a2.12,2.12,0,0,0,2.115,1.987H15.319a2.12,2.12,0,0,0,2.115-1.987l.936-14.97h.707a.707.707,0,0,0,.707-.707V4.239A.707.707,0,0,0,19.077,3.533ZM7.666,2.12h4.451l.848,1.413H6.818Zm7.653,18.37H4.465L3.538,5.652H16.247Z" transform="translate(0 0)"/></svg>